# xmcd
#
# Track frame offsets:
#	150
#	13488
#	25443
#	38194
#	51243
#	65281
#	76711
#	94397
#	112767
#	138098
#
# Disc length: 2006 seconds
#
# Revision: 1
# Processed by: cddbd v1.4PL0 Copyright (c) Steve Scherf et al.
# Submitted via: EasyCDDAExtractor 5.0.7
#
DISCID=7c07d40a
DTITLE=Various Artist - Doesn't Everybody Go To Cleveland
DYEAR=2002
DGENRE=Country
TTITLE0=David Marion Young - You Only Love Me When You're Drunk
TTITLE1=Blue Sky
TTITLE2=Solving The Worlds Problems
TTITLE3=Don't Burn That Bridge
TTITLE4=Hobo Heart
TTITLE5=Pickup Truck
TTITLE6=Doesn't Everybody Go To Cleveland
TTITLE7=My Elvis Thing
TTITLE8=It Takes Every Road
TTITLE9=Irish Lament
EXTD=
EXTT0=
EXTT1=
EXTT2=
EXTT3=
EXTT4=
EXTT5=
EXTT6=
EXTT7=
EXTT8=
EXTT9=
PLAYORDER=
